<!-- Generated by IcoMoon.io -->
<svg version="1.1" xmlns="http://www.w3.org/2000/svg" width="23" height="32" viewBox="0 0 23 32">
<title>ic-place</title>
<path fill="#000" d="M-57.143-806.857h582.857v960h-582.857v-960z"></path>
<path fill="#fff" d="M-57.143-806.857h582.857v960h-582.857v-960z"></path>
<path fill="#9b5252" d="M11.429 0.762c-5.897 0-10.667 4.77-10.667 10.667 0 8 10.667 19.81 10.667 19.81s10.667-11.81 10.667-19.81c0-5.897-4.77-10.667-10.667-10.667v0zM11.429 15.238c-2.103 0-3.81-1.707-3.81-3.81s1.707-3.81 3.81-3.81c2.103 0 3.81 1.707 3.81 3.81s-1.707 3.81-3.81 3.81v0z"></path>
<path fill="#d8d8d8" d="M-8.381-3.81h38.857v38.857h-38.857v-38.857z"></path>
</svg>
