<svg aria-hidden="true" style="position: absolute; width: 0; height: 0; overflow: hidden;" version="1.1" xmlns="http://www.w3.org/2000/svg" xmlns:xlink="http://www.w3.org/1999/xlink">
<defs>
<symbol id="icon-wear" viewBox="0 0 26 32">
<title>Show</title>
<path d="M26.196 17.090c-0.012-0.019-1.232-1.894-2.666-3.744-2.707-3.492-3.819-3.896-4.42-3.896h-1.958c-0.016 0-0.031 0.003-0.047 0.005l-3.273-2.125v-1.107c1.081-0.267 1.889-1.282 1.889-2.494 0-1.415-1.1-2.565-2.451-2.565s-2.451 1.151-2.451 2.565c0 0.324 0.252 0.588 0.562 0.588s0.562-0.263 0.562-0.588c0-0.766 0.596-1.39 1.328-1.39s1.328 0.623 1.328 1.39c0 0.766-0.595 1.39-1.328 1.39-0.31 0-0.562 0.263-0.562 0.588v1.625l-3.264 2.119h-2.317c-1.87 0-5.936 5.843-7.137 7.634-0.145 0.217-0.106 0.513 0.090 0.68l4.519 3.856c0.089 0.077 0.197 0.114 0.304 0.114 0.14 0 0.278-0.063 0.374-0.185l0.46-0.591v9.375c0 0.278 0.215 0.504 0.481 0.504h13.855c0.266 0 0.481-0.226 0.481-0.504v-9.235l0.351 0.45c0.095 0.122 0.234 0.185 0.373 0.185 0.107 0 0.214-0.037 0.304-0.114l4.519-3.856c0.193-0.165 0.234-0.457 0.093-0.674zM13.271 8.35l3.369 2.187c-0.173 1.167-1.145 2.064-2.318 2.064h-1.872c-1.215 0-2.217-0.971-2.327-2.207l3.149-2.044z"></path>
</symbol>
<symbol id="icon-envelope" viewBox="0 0 20 20">
<title>envelope</title>
<path d="M18 2c1.105 0 2 0.895 2 2v0 12c0 1.105-0.895 2-2 2v0h-16c-1.105 0-2-0.895-2-2v0-12c0-1.1 0.9-2 2-2h16zM13.63 11.1l6.37 4.9v-2l-5.12-3.9 5.12-4.1v-2l-10 8-10-8v2l5.12 4.1-5.12 3.9v2l6.37-4.9 3.63 2.9 3.63-2.9z"></path>
</symbol>
<symbol id="icon-tag" viewBox="0 0 20 20">
<title>tag</title>
<path d="M0 10v-8l2-2h8l10 10-10 10-10-10zM4.5 6c0.828 0 1.5-0.672 1.5-1.5s-0.672-1.5-1.5-1.5v0c-0.828 0-1.5 0.672-1.5 1.5s0.672 1.5 1.5 1.5v0z"></path>
</symbol>
<symbol id="icon-phone" viewBox="0 0 32 32">
<title>phone</title>
<path d="M22 20c-2 2-2 4-4 4s-4-2-6-4-4-4-4-6 2-2 4-4-4-8-6-8-6 6-6 6c0 4 4.109 12.109 8 16s12 8 16 8c0 0 6-4 6-6s-6-8-8-6z"></path>
</symbol>
<symbol id="icon-envelop" viewBox="0 0 32 32">
<title>envelop</title>
<path d="M29 4h-26c-1.65 0-3 1.35-3 3v20c0 1.65 1.35 3 3 3h26c1.65 0 3-1.35 3-3v-20c0-1.65-1.35-3-3-3zM12.461 17.199l-8.461 6.59v-15.676l8.461 9.086zM5.512 8h20.976l-10.488 7.875-10.488-7.875zM12.79 17.553l3.21 3.447 3.21-3.447 6.58 8.447h-19.579l6.58-8.447zM19.539 17.199l8.461-9.086v15.676l-8.461-6.59z"></path>
</symbol>
<symbol id="icon-location" viewBox="0 0 32 32">
<title>location</title>
<path d="M16 0c-5.523 0-10 4.477-10 10 0 10 10 22 10 22s10-12 10-22c0-5.523-4.477-10-10-10zM16 16c-3.314 0-6-2.686-6-6s2.686-6 6-6 6 2.686 6 6-2.686 6-6 6z"></path>
</symbol>
<symbol id="icon-redo2" viewBox="0 0 32 32">
<title>share</title>
<path d="M18 7.762v-7.762l12 12-12 12v-7.932c-13.961-0.328-13.362 9.493-9.808 15.932-8.772-9.482-6.909-24.674 9.808-24.238z"></path>
</symbol>
<symbol id="icon-link" viewBox="0 0 32 32">
<title>link</title>
<path d="M13.757 19.868c-0.416 0-0.832-0.159-1.149-0.476-2.973-2.973-2.973-7.81 0-10.783l6-6c1.44-1.44 3.355-2.233 5.392-2.233s3.951 0.793 5.392 2.233c2.973 2.973 2.973 7.81 0 10.783l-2.743 2.743c-0.635 0.635-1.663 0.635-2.298 0s-0.635-1.663 0-2.298l2.743-2.743c1.706-1.706 1.706-4.481 0-6.187-0.826-0.826-1.925-1.281-3.094-1.281s-2.267 0.455-3.094 1.281l-6 6c-1.706 1.706-1.706 4.481 0 6.187 0.635 0.635 0.635 1.663 0 2.298-0.317 0.317-0.733 0.476-1.149 0.476z"></path>
<path d="M8 31.625c-2.037 0-3.952-0.793-5.392-2.233-2.973-2.973-2.973-7.81 0-10.783l2.743-2.743c0.635-0.635 1.664-0.635 2.298 0s0.635 1.663 0 2.298l-2.743 2.743c-1.706 1.706-1.706 4.481 0 6.187 0.826 0.826 1.925 1.281 3.094 1.281s2.267-0.455 3.094-1.281l6-6c1.706-1.706 1.706-4.481 0-6.187-0.635-0.635-0.635-1.663 0-2.298s1.663-0.635 2.298 0c2.973 2.973 2.973 7.81 0 10.783l-6 6c-1.44 1.44-3.355 2.233-5.392 2.233z"></path>
</symbol>
<symbol id="icon-heart" viewBox="0 0 32 32">
<title>heart</title>
<path d="M23.6 2c-3.363 0-6.258 2.736-7.599 5.594-1.342-2.858-4.237-5.594-7.601-5.594-4.637 0-8.4 3.764-8.4 8.401 0 9.433 9.516 11.906 16.001 21.232 6.13-9.268 15.999-12.1 15.999-21.232 0-4.637-3.763-8.401-8.4-8.401z"></path>
</symbol>
<symbol id="icon-ctrl" viewBox="0 0 32 32">
<title>ctrl</title>
<path d="M23 14c-0.278 0-0.555-0.116-0.753-0.341l-6.247-7.14-6.247 7.14c-0.364 0.416-0.995 0.458-1.411 0.094s-0.458-0.995-0.094-1.411l7-8c0.19-0.217 0.464-0.341 0.753-0.341s0.563 0.125 0.753 0.341l7 8c0.364 0.416 0.322 1.047-0.094 1.411-0.19 0.166-0.424 0.247-0.658 0.247z"></path>
</symbol>
<symbol id="icon-link2" viewBox="0 0 80 32">
<title>link2</title>
<path d="M15.319 0c-8.443 0-15.319 7.182-15.319 16s6.877 16 15.319 16h17.021c8.443 0 15.319-7.182 15.319-16 0.013-0.962-0.471-1.856-1.266-2.341s-1.779-0.485-2.574 0c-0.795 0.485-1.279 1.379-1.266 2.341 0 5.955-4.511 10.666-10.213 10.666h-17.021c-5.702 0-10.213-4.711-10.213-10.666s4.511-10.666 10.213-10.666h16.17c0.921 0.014 1.777-0.492 2.241-1.322s0.464-1.858 0-2.689c-0.464-0.831-1.321-1.336-2.241-1.322h-16.17zM47.66 0c-8.443 0-15.319 7.182-15.319 16-0.013 0.962 0.471 1.856 1.266 2.341s1.779 0.485 2.574 0c0.795-0.485 1.279-1.379 1.266-2.341 0-5.955 4.511-10.666 10.213-10.666h17.021c5.702 0 10.213 4.711 10.213 10.666s-4.511 10.666-10.213 10.666h-16.17c-0.921-0.014-1.777 0.492-2.241 1.322s-0.464 1.858 0 2.689c0.464 0.831 1.321 1.336 2.241 1.322h16.17c8.443 0 15.319-7.182 15.319-16s-6.877-16-15.319-16h-17.021z"></path>
</symbol>
</defs>
</svg>
