<?xml version="1.0" encoding="UTF-8"?>
<svg width="14px" height="20px" viewBox="0 0 14 20" version="1.1" xmlns="http://www.w3.org/2000/svg" xmlns:xlink="http://www.w3.org/1999/xlink">
    <!-- Generator: sketchtool 50.2 (55047) - http://www.bohemiancoding.com/sketch -->
    <title>1CB06186-C6E2-4A3B-8101-0F9480725AFB</title>
    <desc>Created with sketchtool.</desc>
    <defs>
        <path d="M15,5 C11.13,5 8,8.13 8,12 C8,17.25 15,25 15,25 C15,25 22,17.25 22,12 C22,8.13 18.87,5 15,5 L15,5 Z M15,14.5 C13.62,14.5 12.5,13.38 12.5,12 C12.5,10.62 13.62,9.5 15,9.5 C16.38,9.5 17.5,10.62 17.5,12 C17.5,13.38 16.38,14.5 15,14.5 L15,14.5 Z" id="path-1"></path>
    </defs>
    <g id="Page-1" stroke="none" stroke-width="1" fill="none" fill-rule="evenodd">
        <g id="Contact_us_1440" transform="translate(-253.000000, -605.000000)">
            <g id="Contact-Card" transform="translate(0.000000, 380.000000)">
                <polygon id="placeholder" fill="#FFFFFF" points="0 0 1440 0 1440 666 0 666"></polygon>
                <g id="content" transform="translate(245.000000, 60.000000)">
                    <g id="form"></g>
                    <g id="contact" transform="translate(0.000000, 60.000000)"></g>
                    <g id="3.-Icons/ic_place" transform="translate(0.000000, 160.000000)">
                        <mask id="mask-2" fill="white">
                            <use xlink:href="#path-1"></use>
                        </mask>
                        <use id="Icon" fill="#9B5252" fill-rule="evenodd" xlink:href="#path-1"></use>
                        <g id="5.-Colors/Gray-85" mask="url(#mask-2)" fill="#D8D8D8" fill-rule="evenodd">
                            <g transform="translate(2.000000, 2.000000)" id="Gray-85">
                                <rect x="0" y="0" width="26" height="26"></rect>
                            </g>
                        </g>
                    </g>
                </g>
            </g>
        </g>
    </g>
</svg>