<?xml version="1.0" encoding="UTF-8"?>
<svg width="10px" height="14px" viewBox="0 0 10 14" version="1.1" xmlns="http://www.w3.org/2000/svg" xmlns:xlink="http://www.w3.org/1999/xlink">
    <!-- Generator: sketchtool 50.2 (55047) - http://www.bohemiancoding.com/sketch -->
    <title>38322432-EE18-4885-A1E8-A5825637CF81</title>
    <desc>Created with sketchtool.</desc>
    <defs>
        <rect id="path-1" x="0" y="0" width="255" height="420"></rect>
        <filter x="-7.5%" y="-4.0%" width="114.9%" height="109.0%" filterUnits="objectBoundingBox" id="filter-2">
            <feOffset dx="0" dy="2" in="SourceAlpha" result="shadowOffsetOuter1"></feOffset>
            <feGaussianBlur stdDeviation="6" in="shadowOffsetOuter1" result="shadowBlurOuter1"></feGaussianBlur>
            <feColorMatrix values="0 0 0 0 0   0 0 0 0 0   0 0 0 0 0  0 0 0 0.05 0" type="matrix" in="shadowBlurOuter1"></feColorMatrix>
        </filter>
        <path d="M10,3.33333333 C7.42,3.33333333 5.33333333,5.42 5.33333333,8 C5.33333333,11.5 10,16.6666667 10,16.6666667 C10,16.6666667 14.6666667,11.5 14.6666667,8 C14.6666667,5.42 12.58,3.33333333 10,3.33333333 L10,3.33333333 Z M10,9.66666667 C9.08,9.66666667 8.33333333,8.92 8.33333333,8 C8.33333333,7.08 9.08,6.33333333 10,6.33333333 C10.92,6.33333333 11.6666667,7.08 11.6666667,8 C11.6666667,8.92 10.92,9.66666667 10,9.66666667 L10,9.66666667 Z" id="path-3"></path>
    </defs>
    <g id="Page-1" stroke="none" stroke-width="1" fill="none" fill-rule="evenodd">
        <g id="occasions_1440" transform="translate(-1045.000000, -753.000000)">
            <g id="events" transform="translate(165.000000, 400.000000)">
                <g id="4" transform="translate(855.000000, 0.000000)">
                    <g id="News-Card-Copy-3">
                        <g id="placeholder">
                            <use fill="black" fill-opacity="1" filter="url(#filter-2)" xlink:href="#path-1"></use>
                            <use fill="#FFFFFF" fill-rule="evenodd" xlink:href="#path-1"></use>
                        </g>
                    </g>
                    <g id="3.-Icons/ic_place" transform="translate(20.000000, 350.000000)">
                        <mask id="mask-4" fill="white">
                            <use xlink:href="#path-3"></use>
                        </mask>
                        <use id="Icon" fill="#9B5252" fill-rule="evenodd" xlink:href="#path-3"></use>
                        <g id="5.-Colors/Gray-85" mask="url(#mask-4)" fill="#D8D8D8" fill-rule="evenodd">
                            <g transform="translate(1.333333, 1.333333)" id="Gray-85">
                                <rect x="0" y="0" width="17" height="17"></rect>
                            </g>
                        </g>
                    </g>
                </g>
            </g>
        </g>
    </g>
</svg>