<?xml version="1.0" encoding="UTF-8"?>
<svg width="18px" height="22px" viewBox="0 0 18 22" version="1.1" xmlns="http://www.w3.org/2000/svg" xmlns:xlink="http://www.w3.org/1999/xlink">
    <!-- Generator: sketchtool 51.2 (57519) - http://www.bohemiancoding.com/sketch -->
    <title>2CF4CE91-A504-4C1C-B297-753127D8FED4</title>
    <desc>Created with sketchtool.</desc>
    <defs>
        <path d="M26.0094187,17.7496196 C26.0010337,17.7366872 25.1625275,16.4473691 24.1766207,15.1756022 C22.3155782,12.7745562 21.5512136,12.4969707 21.1381389,12.4969707 L19.7921158,12.4969707 C19.7810828,12.4969707 19.7704912,12.49928 19.7598995,12.5004347 L17.5098343,11.0397618 L17.5098343,10.2785954 C18.2532362,10.0952318 18.8088569,9.39688009 18.8088569,8.56366147 C18.8088569,7.59118819 18.0528774,6.8 17.1236801,6.8 C16.1944828,6.8 15.4385032,7.59118819 15.4385032,8.56366147 C15.4385032,8.78674606 15.6115003,8.96780022 15.8246574,8.96780022 C16.0378145,8.96780022 16.2108116,8.78674606 16.2108116,8.56366147 C16.2108116,8.03689549 16.6203557,7.60827749 17.1236801,7.60827749 C17.6270045,7.60827749 18.0365486,8.03689549 18.0365486,8.56366147 C18.0365486,9.09042746 17.6272251,9.51904546 17.1236801,9.51904546 C16.910523,9.51904546 16.7375259,9.70009962 16.7375259,9.92318421 L16.7375259,11.0404546 L14.4931978,12.4972016 L13.4492576,12.4972016 L12.900036,12.4972016 C11.6142529,12.4972016 8.81937929,16.5143407 7.99345066,17.7454628 C7.89371255,17.8944168 7.92063302,18.0983336 8.05523533,18.213109 L11.1621215,20.8637973 C11.2234649,20.9164508 11.2976065,20.9418538 11.3710861,20.9418538 C11.4672937,20.9418538 11.5623979,20.8984378 11.6279338,20.8143769 L11.9443596,20.4081598 L11.9443596,26.8535954 C11.9443596,27.0448107 12.0924221,27.2 12.2753489,27.2 L21.8005588,27.2 C21.9832649,27.2 22.1315481,27.0448107 22.1315481,26.8535954 L22.1315481,20.5044602 L22.3729497,20.814146 C22.4382649,20.8979759 22.5335898,20.9416229 22.6295767,20.9416229 C22.7030563,20.9416229 22.7769773,20.9162199 22.8385413,20.8635664 L25.9452068,18.2126472 C26.0778232,18.0992574 26.105847,17.8983427 26.0094187,17.7496196 Z M17.1239007,11.7404229 L19.4403845,13.24405 C19.3212284,14.0463231 18.653292,14.6631543 17.8465607,14.6631543 L16.559233,14.6631543 C15.7235954,14.6631543 15.0353583,13.9955171 14.9592307,13.1456711 L17.1239007,11.7404229 Z" id="path-1"></path>
    </defs>
    <g id="Symbols" stroke="none" stroke-width="1" fill="none" fill-rule="evenodd">
        <g id="image_block" transform="translate(-111.000000, -558.000000)">
            <g>
                <rect id="Rectangle" fill="#FFFFFF" x="0" y="540" width="325" height="58"></rect>
                <g id="Group-2" transform="translate(12.000000, 552.000000)" opacity="0.300000012">
                    <g id="3.-Icons/ic_remove_red_eye" transform="translate(91.000000, 0.000000)">
                        <mask id="mask-2" fill="white">
                            <use xlink:href="#path-1"></use>
                        </mask>
                        <use id="Shape" fill="#000000" fill-rule="nonzero" xlink:href="#path-1"></use>
                        <g id="5.-Colors/Red" mask="url(#mask-2)" fill="#F74236" fill-rule="evenodd">
                            <g transform="translate(2.266667, 2.266667)" id="Red">
                                <rect x="0" y="0" width="29" height="29"></rect>
                            </g>
                        </g>
                    </g>
                </g>
            </g>
        </g>
    </g>
</svg>